# File created by Blade
# Date/Time:  Tue Jan 27 19:05:02 2015
# Frame Rate: 120.000 fps
#------------------------------------------------------
:FULLY-SPECIFIED
:DEGREES
3198
root -2.044605 31.455291 -5.900466 11.787774 -43.015594 -4.600222
Spine 2.758001 15.166877 -5.105454
Head 12.974078 29.773236 -7.104309
LeftShoulder -20.677403 21.972765 14.317374
LeftArm -11.577525 -55.149074 -66.108941
LeftForeArm -12.342108 -0.000000 95.268936
LeftHand -11.206352 -0.000000 43.085386
LeftHandThumb1 -26.253704 0.000000 33.147579
RightShoulder 2.573099 15.092646 -6.167659
RightArm 58.124345 -74.556094 47.314111
RightForeArm -34.641730 0.000000 24.173139
RightHand -9.795771 0.000000 20.211919
RightHandThumb1 -24.326973 -0.000000 -32.862282
LeftUpLeg -17.574531 17.142740 -10.728193
LeftLeg 19.596301 -0.000000 -0.000000
LeftFoot -34.072431 36.191903 -22.651149
LeftToeBase 9.956951 -0.000000 -0.000000
RightUpLeg -25.424810 -62.310094 8.081731
RightLeg 77.744729 -0.000000 -0.000000
RightFoot -22.581506 -20.116784 24.235410
RightToeBase 0.765328 -0.000000 -0.000000
3199
root -2.034417 31.453530 -5.905402 11.778132 -42.982375 -4.556879
Spine 2.799394 15.085716 -5.145516
Head 12.900899 29.713980 -7.095398
LeftShoulder -20.613004 21.963018 14.381035
LeftArm -11.856146 -55.201339 -65.734914
LeftForeArm -12.593416 -0.000000 94.929865
LeftHand -11.205874 -0.000000 43.133615
LeftHandThumb1 -26.253704 0.000000 33.147579
RightShoulder 2.528377 15.077841 -6.137873
RightArm 57.798589 -74.472854 47.652925
RightForeArm -34.599352 -0.000000 24.272115
RightHand -9.883300 -0.000000 20.177970
RightHandThumb1 -24.326973 -0.000000 -32.862282
LeftUpLeg -17.617017 17.196451 -10.793063
LeftLeg 19.590201 -0.000000 -0.000000
LeftFoot -34.069996 36.094076 -22.686460
LeftToeBase 9.922723 -0.000000 -0.000000
RightUpLeg -25.480464 -62.238236 8.106770
RightLeg 77.718877 -0.000000 -0.000000
RightFoot -22.440638 -20.136969 24.147670
RightToeBase 0.615382 -0.000000 -0.000000
3200
root -2.022837 31.451879 -5.912878 11.791515 -42.919199 -4.526412
Spine 2.827490 14.958683 -5.176263
Head 12.833833 29.659215 -7.056922
LeftShoulder -20.605753 21.993999 14.405459
LeftArm -12.052076 -55.174949 -65.404816
LeftForeArm -12.770869 -0.000000 94.636200
LeftHand -11.211878 -0.000000 43.190844
LeftHandThumb1 -26.253704 0.000000 33.147579
RightShoulder 2.509435 14.968976 -6.122588
RightArm 57.749602 -74.325488 47.720150
RightForeArm -34.591499 0.000000 24.361410
RightHand -9.893935 -0.000000 20.126735
RightHandThumb1 -24.326973 -0.000000 -32.862282
LeftUpLeg -17.675080 17.185117 -10.836622
LeftLeg 19.592493 -0.000000 -0.000000
LeftFoot -34.056147 36.035257 -22.672054
LeftToeBase 9.971409 -0.000000 -0.000000
RightUpLeg -25.568398 -62.191358 8.176434
RightLeg 77.702375 -0.000000 -0.000000
RightFoot -22.298475 -20.185513 23.984148
RightToeBase -0.684013 -0.000000 0.000000
3201
root -2.013672 31.450642 -5.919311 11.808398 -42.855703 -4.517043
Spine 2.855360 14.848778 -5.192532
Head 12.791193 29.598001 -6.996247
LeftShoulder -20.561315 21.955604 14.457520
LeftArm -12.458651 -55.139141 -64.896526
LeftForeArm -12.729746 0.000000 94.372279
LeftHand -11.452529 -0.000000 42.775576
LeftHandThumb1 -26.253704 0.000000 33.147579
RightShoulder 2.478116 14.897869 -6.088749
RightArm 57.556523 -74.215187 47.906309
RightForeArm -34.554713 -0.000000 24.445796
RightHand -9.909327 -0.000000 20.045749
RightHandThumb1 -24.326973 -0.000000 -32.862282
LeftUpLeg -17.723654 17.162334 -10.841952
LeftLeg 19.621036 -0.000000 -0.000000
LeftFoot -33.978880 35.986992 -22.541308
LeftToeBase 9.998944 -0.000000 -0.000000
RightUpLeg -25.614810 -62.141735 8.230975
RightLeg 77.694638 -0.000000 -0.000000
RightFoot -22.214383 -20.165711 24.012614
RightToeBase 0.404700 -0.000000 -0.000000
